<?xml version="1.0" standalone="no"?>
<!DOCTYPE svg PUBLIC "-//W3C//DTD SVG 20010904//EN"
 "http://www.w3.org/TR/2001/REC-SVG-20010904/DTD/svg10.dtd">
<svg version="1.0" xmlns="http://www.w3.org/2000/svg"
 width="400.000000pt" height="400.000000pt" viewBox="0 0 400.000000 400.000000"
 preserveAspectRatio="xMidYMid meet">
<metadata>
Created by potrace 1.14, written by Peter Selinger 2001-2017
</metadata>
<g transform="translate(0.000000,400.000000) scale(0.100000,-0.100000)"
fill="#000000" stroke="none">
<path d="M1515 3565 c-68 -30 -106 -77 -172 -213 -62 -128 -82 -202 -83 -303
0 -54 4 -71 25 -99 14 -19 25 -38 25 -43 0 -5 -13 -25 -30 -44 -47 -54 -33
-112 25 -101 21 4 23 3 14 -14 -5 -10 -7 -24 -3 -30 14 -22 32 -138 36 -234 2
-29 6 -50 9 -48 4 2 15 -6 25 -18 18 -20 18 -21 1 -15 -11 4 -16 3 -12 -3 3
-6 14 -10 23 -10 22 -1 79 -52 79 -72 0 -9 -9 -15 -21 -14 -13 1 -20 8 -20 19
1 9 -1 15 -5 12 -11 -6 -81 54 -81 71 0 8 -4 14 -9 14 -5 0 -12 8 -14 18 -4
13 -5 13 -6 -4 -1 -25 136 -160 262 -259 42 -33 79 -70 83 -82 3 -12 15 -30
26 -40 33 -29 40 -61 27 -117 -8 -39 -8 -58 2 -81 10 -26 13 -27 17 -10 10 46
45 115 62 120 33 10 55 46 72 118 23 95 24 177 2 177 -8 0 -12 5 -8 11 4 8 -1
9 -15 4 l-22 -7 22 26 c12 14 28 26 35 26 7 0 15 14 19 31 4 19 16 34 31 40
40 15 108 91 121 134 7 22 15 72 19 110 4 39 20 102 35 142 34 84 35 93 10
115 -18 15 -19 13 -24 -57 -9 -101 -19 -122 -63 -134 -21 -6 -38 -9 -39 -8
-13 32 -40 71 -78 114 -27 29 -47 58 -45 65 3 9 24 12 70 10 40 -2 69 1 73 7
3 6 15 11 26 11 10 0 19 3 20 8 0 4 2 25 5 47 6 59 -3 83 -39 102 -60 32 -234
18 -212 -17 3 -4 7 -42 9 -85 4 -63 9 -83 31 -111 29 -38 28 -52 -3 -35 -12 6
-31 7 -49 2 -34 -10 -121 -3 -129 10 -2 4 9 15 25 24 39 20 52 40 20 30 -13
-4 -26 -11 -29 -15 -3 -4 -24 -17 -47 -29 -24 -12 -43 -25 -43 -29 -1 -4 -19
-27 -41 -52 -35 -38 -43 -42 -59 -32 -13 8 -21 8 -25 1 -4 -6 -12 -3 -21 8
-13 17 -15 17 -25 1 -12 -21 -34 -24 -26 -4 3 7 -9 42 -26 77 -28 57 -32 73
-30 140 2 76 28 166 59 200 8 9 14 24 13 35 -1 10 -1 42 -1 71 2 62 30 94 103
118 40 14 54 14 115 2 38 -8 87 -15 109 -16 86 -3 143 -24 263 -96 49 -30 70
-83 78 -205 3 -58 10 -111 14 -118 12 -23 19 148 10 223 -5 39 -9 93 -10 121
0 54 -17 105 -47 139 -40 46 -140 109 -214 135 -70 25 -90 28 -171 24 -51 -2
-94 0 -98 5 -3 5 -27 -1 -55 -14z m-196 -742 c0 -41 -2 -45 -11 -26 -10 20 -4
73 7 73 3 0 5 -21 4 -47z m349 -39 c17 -12 10 -18 -30 -28 -33 -8 -33 -5 -11
37 11 23 18 28 21 17 3 -8 12 -20 20 -26z m-271 -106 c-3 -8 -6 -5 -6 6 -1 11
2 17 5 13 3 -3 4 -12 1 -19z m437 -11 c35 -7 30 -27 -6 -27 -18 0 -39 -4 -47
-9 -9 -6 -29 -4 -54 5 -22 8 -50 14 -63 14 -35 0 -29 18 8 28 27 7 94 2 162
-11z m151 -36 c-22 -43 -37 -30 -17 14 9 20 20 31 25 26 5 -5 2 -22 -8 -40z
m-441 6 c8 -12 7 -20 -3 -29 -11 -11 -13 -9 -8 10 3 15 1 22 -9 22 -8 0 -14 5
-14 11 0 15 21 6 34 -14z m151 -49 c32 -10 36 -13 18 -16 -13 -2 -23 -7 -23
-11 0 -13 24 -31 41 -31 9 0 22 -7 29 -15 17 -20 47 -19 59 3 8 14 12 15 23 3
11 -11 10 -15 -7 -25 -10 -6 -32 -23 -48 -38 -21 -21 -35 -26 -53 -22 -13 3
-24 12 -24 19 0 7 -7 15 -15 19 -8 3 -15 1 -15 -4 0 -6 -5 -10 -11 -10 -6 0
-9 7 -5 15 3 9 0 15 -8 15 -14 0 -86 97 -86 116 0 26 23 32 54 13 17 -11 49
-25 71 -31z m-183 -278 c-1 -7 2 -17 7 -24 7 -8 4 -12 -12 -13 -12 -1 -17 1
-12 5 13 9 13 35 0 45 -6 5 -4 7 5 4 8 -2 14 -10 12 -17z m252 -4 c32 -4 29
-21 -7 -60 -19 -20 -30 -36 -24 -36 5 0 4 -7 -3 -15 -9 -11 -9 -22 -1 -46 14
-40 14 -39 -5 -39 -9 0 -14 -6 -11 -12 2 -7 10 -12 16 -10 7 1 10 -2 7 -7 -4
-5 0 -12 6 -14 9 -4 10 -6 1 -6 -6 -1 -15 4 -18 9 -5 8 -11 7 -21 -1 -12 -9
-13 -9 -9 3 7 18 -19 70 -30 60 -5 -4 -5 1 -2 10 4 12 2 15 -7 12 -8 -3 -19 7
-27 25 -8 17 -17 31 -21 31 -5 0 -8 10 -8 23 0 13 -5 28 -12 35 -9 9 -7 12 11
12 18 0 21 4 16 21 -7 22 -6 22 61 14 38 -4 78 -8 88 -9z m-9 -258 c5 4 5 1 1
-6 -5 -9 -12 -9 -27 -2 -10 6 -19 13 -19 16 0 2 8 0 19 -5 10 -6 22 -7 26 -3z"/>
<path d="M1615 2230 c4 -6 11 -8 16 -5 14 9 11 15 -7 15 -8 0 -12 -5 -9 -10z"/>
<path d="M1492 3082 c-13 -4 -23 -10 -22 -14 2 -20 13 -37 20 -33 5 3 12 0 15
-6 4 -6 -7 -24 -24 -40 -18 -16 -29 -30 -24 -30 4 -1 22 -2 38 -4 55 -4 110
-18 122 -31 8 -8 26 -11 48 -7 25 4 35 2 35 -8 0 -10 4 -9 16 3 11 10 18 38
20 76 5 82 -6 91 -127 97 -52 2 -104 1 -117 -3z m148 -112 c0 -5 -5 -10 -11
-10 -5 0 -7 5 -4 10 3 6 8 10 11 10 2 0 4 -4 4 -10z"/>
<path d="M1200 2951 c-8 -21 -8 -39 1 -75 15 -59 29 -68 29 -19 0 21 3 54 6
74 8 47 -18 62 -36 20z"/>
<path d="M1260 2923 c0 -4 5 -15 10 -23 8 -13 10 -13 10 2 0 9 -4 20 -10 23
-5 3 -10 3 -10 -2z"/>
<path d="M1230 2772 c0 -15 38 -44 51 -40 7 2 -1 14 -19 27 -18 12 -32 18 -32
13z"/>
<path d="M1400 2375 c0 -2 10 -10 23 -16 20 -11 21 -11 8 4 -13 16 -31 23 -31
12z"/>
<path d="M1450 2319 c0 -5 5 -7 10 -4 6 3 10 8 10 11 0 2 -4 4 -10 4 -5 0 -10
-5 -10 -11z"/>
<path d="M2306 996 c-3 -14 -7 -29 -9 -32 -1 -4 8 -9 21 -10 26 -4 26 -5 8 36
l-13 32 -7 -26z"/>
<path d="M1281 939 c-1 -25 5 -53 12 -64 22 -30 25 -4 6 55 l-18 55 0 -46z"/>
<path d="M2155 930 c-27 -30 -16 -31 35 -5 45 24 45 24 14 25 -19 0 -38 -8
-49 -20z"/>
<path d="M2398 888 c5 -7 19 -44 31 -81 18 -58 19 -71 7 -82 -7 -8 -16 -12
-19 -9 -2 3 -7 -2 -11 -11 -3 -9 -2 -13 4 -10 6 3 10 -1 10 -9 0 -10 -6 -13
-15 -10 -10 4 -18 -2 -23 -17 -7 -18 -10 -9 -15 41 -4 35 -11 68 -16 73 -5 5
-5 -13 1 -40 5 -26 6 -63 3 -82 -5 -29 -4 -33 10 -27 9 3 20 6 25 6 4 0 24 15
44 33 l37 32 -10 68 c-7 48 -18 79 -36 103 -14 19 -29 34 -32 34 -3 0 -1 -6 5
-12z"/>
<path d="M1436 866 c3 -9 11 -16 16 -16 13 0 5 23 -10 28 -7 2 -10 -2 -6 -12z"/>
<path d="M1360 848 c0 -9 79 -21 116 -16 18 2 3 7 -43 13 -40 6 -73 7 -73 3z"/>
</g>
</svg>
